<?xml version="1.0" encoding="UTF-8"?>
<svg id="Layer_2" xmlns="http://www.w3.org/2000/svg" version="1.1" viewBox="0 0 918.9 318.1">
  <!-- Generator: Adobe Illustrator 30.2.1, SVG Export Plug-In . SVG Version: 2.1.1 Build 1)  -->
  <defs>
    <style>
      .st0 {
        fill: #231f20;
      }

      .st1 {
        fill: none;
        stroke: #00b1df;
        stroke-miterlimit: 10;
        stroke-width: 2px;
      }

      .st2 {
        isolation: isolate;
      }

      .st3 {
        fill: #fff;
      }
    </style>
  </defs>
  <g id="Layer_1-2">
    <g>
      <g>
        <g>
          <path class="st3" d="M304.2,268.9h0c0,.1,127.1.1,127.1.1h0c0-.1-127.1-.1-127.1-.1Z"/>
          <path class="st1" d="M304.2,268.9h0c0,.1,127.1.1,127.1.1h0c0-.1-127.1-.1-127.1-.1Z"/>
        </g>
        <path class="st1" d="M615.1,172.9v75.6c0,11.3-9.2,20.5-20.5,20.5h-27c0-.1-12.1-.1-12.1-.1-3.8,27.3-27.2,48.3-55.6,48.3s-51.8-21-55.6-48.3h-153.1c-3.8,27.3-27.2,48.3-55.6,48.3s-51.8-21-55.6-48.3l-.8-4.3-11.7-.2h-29.5c-11.4,0-20.6-9.2-20.6-20.6v-31.8c0-4.4,3.6-8,8.1-8h23.7c4.5,0,8.1-3.7,8.1-8.1v-3.9c0-4.4-3.6-8-8.1-8h-78.8c-4.5,0-8.1-3.6-8.1-8.1v-9.2c0-4.5,3.6-8.1,8.1-8.1h140.9c4.5,0,8.1-3.6,8.1-8.1v-1.5c0-4.4-3.6-8.1-8.1-8.1H9.1c-4.5,0-8.1-3.6-8.1-8v-6.1c0-4.5,3.6-8.1,8.1-8.1h238.1c4.5,0,8.1-3.6,8.1-8v-.8c0-4.4-3.6-8-8.1-8H95.5c-4.4,0-8-3.6-8-8.1v-4.6c0-4.4,3.6-8,8-8h93.4c4.4,0,8.1-3.6,8.1-8.1v-5.4c0-4.4-3.7-8-8.1-8H27.4c-4.4,0-8-3.7-8-8.1v-5.4c0-4.4,3.6-8,8-8h199.1c4.5,0,8.1-3.7,8.1-8s-3.6-8.1-8.1-8.1H70.8c-4.3,0-7.9-3.4-8.1-7.7l-.2-5.4c-.1-4.6,3.5-8.3,8.1-8.3h354.8c14.3,0,25.8,11.6,25.8,25.8v26.3h87.2c8.6,0,16.6,4.5,21,12l48.9,82.9c4.5,7.5,6.8,16.1,6.8,24.9h0Z"/>
      </g>
      <g class="st2">
        <g class="st2">
          <path class="st0" d="M359,97.4c-15.7,0-21.8,9.1-21.8,26.6v58.5c0,1.9-1,3-3.1,3h-43.3c-1.9,0-3-1-3-3v-56.6c0-24.8,13.4-42.3,42-42.3h105.1c2.1,0,3.1,1,3.1,3.1v7.6c0,1.9-1,3-3.1,3h-75.9ZM351.7,136.9c-2.1,0-3.1-1-3.1-3.1v-7.5c0-2.2,1-3.3,3.1-3.3h82.3c2.2,0,3.3.9,3.3,2.2v9.6c0,1.3-1,2.1-3.3,2.1h-82.3Z"/>
        </g>
        <g class="st2">
          <path class="st0" d="M569.9,185.6c-2.7,0-4.5-.7-6.1-2.5l-64.5-69.4-54.8,58.1h82.4c2.1,0,3.1,1,3.1,3.3v7.6c0,1.9-1,3-3.1,3h-106c-1.5,0-2.5-.9-2.5-2.2s.1-1.5,1-2.2l90.8-94.8c1.6-1.6,3.4-2.5,5.5-2.5h7.3c2.4,0,4,.9,5.7,2.5l90.1,95.1c.7.9,1,1.6,1,2.4s-.9,1.8-2.7,1.8h-47.2Z"/>
          <path class="st0" d="M628.7,185.6c-2.1,0-3.1-1-3.1-3v-7.6c0-2.2,1-3.3,3.1-3.3h87.2c3,0,5.1-1.3,5.1-4.3s-1.6-3.7-4.5-4.9l-70.8-29.6c-11.9-4.9-19-12.8-19-24.6s10.5-24.5,26-24.5h106.5c2.1,0,3.1,1,3.1,3.1v7.6c0,1.9-1,3-3.1,3h-84.1c-3,0-5.1,1.5-5.1,4.5s1.6,3.7,4.5,4.9l70.8,29.4c11.9,5.1,19,13,19,24.8s-10.5,24.5-26.1,24.5h-109.5Z"/>
          <path class="st0" d="M824.1,185.6c-1.5,0-2.2-.6-2.2-1.6v-86.5h-48.4c-1.6,0-2.2-.3-2.2-1.5v-10.6c0-1,.6-1.6,2.2-1.6h142c1.3,0,2.2.6,2.2,1.6v10.6c0,1.2-.9,1.5-2.2,1.5h-48.7v86.5c0,1-.6,1.6-2.2,1.6h-40.5Z"/>
        </g>
      </g>
      <g class="st2">
        <g class="st2">
          <path class="st0" d="M301.2,204.9c-4.1,0-5.6,2.4-5.6,6.9v15.2c0,.5-.3.8-.8.8h-11.2c-.5,0-.8-.3-.8-.8v-14.7c0-6.4,3.5-11,10.9-11h27.2c.5,0,.8.3.8.8v2c0,.5-.3.8-.8.8h-19.7ZM299.3,215.1c-.5,0-.8-.3-.8-.8v-1.9c0-.6.3-.9.8-.9h21.3c.6,0,.9.2.9.6v2.5c0,.3-.3.5-.9.5h-21.3Z"/>
        </g>
        <g class="st2">
          <path class="st0" d="M342.6,227.7c-7.4,0-10.9-4.6-10.9-10.9v-14.7c0-.5.2-.8.8-.8h11.2c.5,0,.8.3.8.8v15.2c0,4.5,1.6,6.8,5.6,6.8h17c.5,0,.8.3.8.9v2c0,.5-.3.8-.8.8h-24.6Z"/>
        </g>
        <g class="st2">
          <path class="st0" d="M387.7,227.7c-7.1,0-12.2-5.5-12.2-13.2s4.9-13.2,12.2-13.2h25.5c.5,0,.9.3.9.8v2c0,.5-.3.8-.9.8h-18.7c-4.2,0-6,2.4-6,9.4s1.9,9.8,6,9.8h18.8c.5,0,.8.3.8.9v2c0,.5-.3.8-.8.8h-25.6ZM392.4,215.1c-.5,0-.8-.3-.8-.8v-1.9c0-.6.3-.9.8-.9h20.5c.5,0,.8.2.8.6v2.5c0,.3-.3.5-.8.5h-20.5Z"/>
          <path class="st0" d="M437.7,227.7c-7.1,0-12.2-5.5-12.2-13.2s4.9-13.2,12.2-13.2h25.5c.5,0,.9.3.9.8v2c0,.5-.3.8-.9.8h-18.7c-4.2,0-6,2.4-6,9.4s1.9,9.8,6,9.8h18.8c.5,0,.8.3.8.9v2c0,.5-.3.8-.8.8h-25.6ZM442.4,215.1c-.5,0-.8-.3-.8-.8v-1.9c0-.6.3-.9.8-.9h20.5c.5,0,.8.2.8.6v2.5c0,.3-.3.5-.8.5h-20.5Z"/>
          <path class="st0" d="M488.1,227.7c-.4,0-.6-.2-.6-.4v-22.4h-12.5c-.4,0-.6,0-.6-.4v-2.7c0-.3.2-.4.6-.4h36.8c.3,0,.6.2.6.4v2.7c0,.3-.2.4-.6.4h-12.6v22.4c0,.3-.2.4-.6.4h-10.5Z"/>
        </g>
        <g class="st2">
          <path class="st0" d="M554.4,227.7c-7.4,0-10.9-4.6-10.9-10.9v-14.7c0-.5.2-.8.8-.8h11.2c.5,0,.8.3.8.8v15.2c0,4.5,1.6,6.8,5.6,6.8h17c.5,0,.8.3.8.9v2c0,.5-.3.8-.8.8h-24.6Z"/>
        </g>
        <g class="st2">
          <path class="st0" d="M599.5,227.7c-7.3,0-12.3-5.7-12.3-13.2s4.9-13.2,12.3-13.2h18.2c7.4,0,12.3,5.6,12.3,13.2s-4.9,13.2-12.3,13.2h-18.2ZM612.4,224.1c3.9,0,5.9-2.6,5.9-9.6s-1-9.6-5.9-9.6h-8c-4.5,0-5.7,2.6-5.7,9.6s1.9,9.6,5.7,9.6h8Z"/>
          <path class="st0" d="M652.8,227.7c-7.1,0-12.2-5.5-12.2-13.2s4.9-13.2,12.2-13.2h26.1c.5,0,.9.3.9.8v2c0,.5-.3.8-.9.8h-19.3c-4.2,0-6,2.4-6,9.4s1.9,9.8,6,9.8h11.1v-13c0-.6.3-.9.8-.9h8.4c.5,0,.8.3.8.9v15.8c0,.5-.3.8-.8.8h-27.1Z"/>
          <path class="st0" d="M693.7,227.7c-.5,0-.8-.3-.8-.8v-24.8c0-.5.3-.8.8-.8h10.1c.5,0,.8.3.8.8v24.8c0,.5-.3.8-.8.8h-10.1Z"/>
          <path class="st0" d="M716.7,227.7c-.5,0-.8-.3-.8-.8v-2c0-.6.3-.9.8-.9h22.6c.8,0,1.3-.3,1.3-1.1s-.4-1-1.2-1.3l-18.3-7.7c-3.1-1.3-4.9-3.3-4.9-6.4s2.7-6.3,6.7-6.3h27.6c.5,0,.8.3.8.8v2c0,.5-.3.8-.8.8h-21.8c-.8,0-1.3.4-1.3,1.2s.4,1,1.2,1.3l18.3,7.6c3.1,1.3,4.9,3.4,4.9,6.4s-2.7,6.3-6.8,6.3h-28.4Z"/>
          <path class="st0" d="M775.1,227.7c-.4,0-.6-.2-.6-.4v-22.4h-12.5c-.4,0-.6,0-.6-.4v-2.7c0-.3.2-.4.6-.4h36.8c.3,0,.6.2.6.4v2.7c0,.3-.2.4-.6.4h-12.6v22.4c0,.3-.2.4-.6.4h-10.5Z"/>
          <path class="st0" d="M810.4,227.7c-.5,0-.8-.3-.8-.8v-24.8c0-.5.3-.8.8-.8h10.1c.5,0,.8.3.8.8v24.8c0,.5-.3.8-.8.8h-10.1Z"/>
          <path class="st0" d="M844.9,227.7c-7.1,0-12.2-5.5-12.2-13.2s4.9-13.2,12.2-13.2h25.5c.5,0,.9.3.9.8v2c0,.5-.3.8-.9.8h-18.7c-4.2,0-6,2.4-6,9.4s1.9,9.8,6,9.8h18.8c.5,0,.8.3.8.9v2c0,.5-.3.8-.8.8h-25.6Z"/>
          <path class="st0" d="M882.3,227.7c-.5,0-.8-.3-.8-.8v-2c0-.6.3-.9.8-.9h22.6c.8,0,1.3-.3,1.3-1.1s-.4-1-1.2-1.3l-18.3-7.7c-3.1-1.3-4.9-3.3-4.9-6.4s2.7-6.3,6.7-6.3h27.6c.5,0,.8.3.8.8v2c0,.5-.3.8-.8.8h-21.8c-.8,0-1.3.4-1.3,1.2s.4,1,1.2,1.3l18.3,7.6c3.1,1.3,4.9,3.4,4.9,6.4s-2.7,6.3-6.8,6.3h-28.4Z"/>
        </g>
      </g>
    </g>
  </g>
</svg>